<?xml version="1.0" standalone="no"?>
<!DOCTYPE svg PUBLIC "-//W3C//DTD SVG 20010904//EN"
 "http://www.w3.org/TR/2001/REC-SVG-20010904/DTD/svg10.dtd">
<svg version="1.0" xmlns="http://www.w3.org/2000/svg"
 width="700.000000pt" height="700.000000pt" viewBox="0 0 700.000000 700.000000"
 preserveAspectRatio="xMidYMid meet">
<metadata>
Created by potrace 1.14, written by Peter Selinger 2001-2017
</metadata>
<g transform="translate(0.000000,700.000000) scale(0.100000,-0.100000)"
fill="#000000" stroke="none">
<path d="M0 5390 c0 -1595 0 -1611 20 -1648 11 -20 25 -44 30 -52 17 -26 239
-410 312 -540 14 -25 40 -70 58 -100 33 -56 55 -93 95 -165 13 -22 47 -80 76
-130 28 -49 62 -108 74 -130 12 -22 147 -256 300 -520 153 -264 287 -496 298
-515 11 -19 28 -48 38 -65 11 -16 22 -37 26 -45 4 -8 34 -62 68 -120 34 -58
124 -213 200 -345 75 -132 142 -245 147 -252 7 -9 19 -7 46 11 21 12 62 36 92
53 30 16 94 53 142 81 48 29 91 52 97 52 5 0 11 4 13 8 2 4 23 19 48 33 76 43
111 63 545 314 231 133 436 252 455 263 19 11 118 68 220 127 102 59 205 118
230 132 25 14 50 29 56 34 14 12 22 2 69 -86 21 -38 44 -77 51 -86 8 -8 14
-18 14 -21 0 -3 63 -114 140 -247 77 -133 138 -246 135 -251 -3 -4 -121 -75
-262 -157 -142 -81 -267 -153 -278 -160 -11 -7 -27 -15 -35 -19 -8 -4 -39 -22
-68 -41 -29 -18 -54 -33 -56 -33 -3 0 -37 -19 -78 -43 -40 -24 -93 -55 -118
-69 -25 -14 -218 -126 -430 -248 -212 -123 -403 -233 -425 -245 -59 -33 -269
-156 -274 -161 -2 -2 1106 -4 2462 -4 l2467 0 0 1425 c0 1251 -2 1424 -15
1419 -8 -3 -29 3 -47 14 -18 11 -49 29 -68 40 -19 11 -75 43 -125 72 -49 29
-109 63 -132 75 -23 13 -120 69 -216 124 -96 55 -189 108 -208 119 -149 84
-399 229 -420 243 -14 10 -28 16 -31 13 -3 -2 -11 2 -18 11 -7 8 -19 15 -26
15 -8 0 -14 5 -14 10 0 6 -4 10 -9 10 -5 0 -80 41 -168 91 -87 51 -176 102
-198 114 -22 13 -116 67 -210 120 -93 54 -190 109 -215 123 -25 13 -49 28 -55
32 -5 4 -30 18 -55 32 -25 14 -227 130 -450 258 -223 128 -420 241 -438 252
l-34 19 33 -58 c18 -32 50 -86 71 -121 21 -34 38 -64 38 -66 0 -2 39 -71 86
-153 48 -81 96 -164 106 -183 11 -19 59 -102 108 -185 76 -132 363 -629 418
-725 10 -19 68 -118 127 -220 59 -102 117 -203 130 -225 37 -66 58 -103 150
-260 48 -82 97 -168 109 -190 12 -22 57 -100 101 -173 66 -113 76 -135 64
-146 -12 -11 -335 -200 -469 -274 -25 -14 -57 -33 -72 -43 -14 -11 -28 -19
-31 -19 -3 0 -35 -18 -73 -40 l-68 -40 -26 43 c-15 23 -38 62 -52 87 -39 70
-254 443 -328 570 -37 63 -77 131 -88 151 -11 20 -114 198 -228 395 -114 198
-216 375 -227 394 -31 56 -347 604 -357 620 -8 13 -73 126 -159 274 -76 133
-294 510 -357 618 -41 70 -74 130 -74 133 0 3 -9 18 -19 33 -10 15 -80 133
-154 262 -74 129 -144 251 -155 270 -12 19 -27 46 -35 60 -8 14 -39 69 -70
122 -32 53 -57 101 -57 105 0 5 17 17 38 28 20 10 44 24 52 31 8 6 38 24 65
39 28 14 66 36 85 47 94 55 431 249 473 272 l48 27 252 -147 c139 -80 270
-156 292 -169 22 -12 112 -64 200 -115 143 -83 683 -395 760 -440 364 -209
636 -366 657 -381 15 -11 29 -19 32 -19 3 0 82 -45 177 -101 95 -55 191 -111
213 -123 23 -13 79 -46 125 -72 46 -27 112 -65 147 -84 35 -19 69 -41 76 -48
6 -6 15 -12 19 -12 4 0 56 -29 116 -64 59 -35 110 -63 111 -61 2 2 -23 50 -56
107 -234 403 -1348 2332 -1380 2388 -11 19 -47 83 -82 143 l-62 107 -2324 0
-2324 0 0 -1610z"/>
<path d="M5777 6733 c86 -148 169 -292 185 -321 17 -30 57 -99 89 -154 32 -55
59 -101 59 -103 0 -2 34 -61 76 -131 42 -71 87 -149 101 -174 14 -25 111 -193
216 -375 213 -369 225 -390 244 -425 8 -14 23 -38 33 -55 11 -16 23 -37 27
-45 4 -8 49 -87 100 -175 l93 -160 0 1193 0 1192 -689 0 -689 0 155 -267z"/>
<path d="M0 975 l0 -975 565 0 566 0 -37 68 c-21 37 -48 83 -61 102 -13 19
-23 39 -23 44 0 5 -6 17 -14 25 -7 9 -27 41 -43 71 -28 52 -82 146 -102 180
-5 8 -79 134 -163 280 -84 146 -157 273 -163 282 -5 9 -17 29 -26 45 -8 15
-109 190 -224 388 -115 198 -222 384 -238 413 -15 28 -30 52 -33 52 -2 0 -4
-439 -4 -975z"/>
</g>
</svg>
